<mxfile host="Electron" modified="2024-08-30T10:16:56.671Z" agent="Mozilla/5.0 (Windows NT 10.0; Win64; x64) AppleWebKit/537.36 (KHTML, like Gecko) draw.io/24.4.0 Chrome/120.0.6099.109 Electron/28.1.0 Safari/537.36" etag="iGV50q1KI1GbInCSVq3Y" version="24.4.0" type="device">
  <diagram name="Page-1" id="1VOUDAubqYs-Jm-ugrzu">
    <mxGraphModel dx="934" dy="452" grid="1" gridSize="10" guides="1" tooltips="1" connect="1" arrows="1" fold="1" page="1" pageScale="1" pageWidth="850" pageHeight="1100" math="0" shadow="0">
      <root>
        <mxCell id="0" />
        <mxCell id="1" parent="0" />
        <mxCell id="4EKFbNZDz_hPAvsTpn6M-14" style="edgeStyle=orthogonalEdgeStyle;rounded=0;orthogonalLoop=1;jettySize=auto;html=1;endArrow=none;endFill=0;curved=1;" edge="1" parent="1" source="4EKFbNZDz_hPAvsTpn6M-15" target="4EKFbNZDz_hPAvsTpn6M-16">
          <mxGeometry relative="1" as="geometry" />
        </mxCell>
        <mxCell id="4EKFbNZDz_hPAvsTpn6M-15" value="User" style="shape=umlActor;verticalLabelPosition=bottom;verticalAlign=top;html=1;" vertex="1" parent="1">
          <mxGeometry x="60" y="870" width="30" height="60" as="geometry" />
        </mxCell>
        <mxCell id="4EKFbNZDz_hPAvsTpn6M-16" value="se connecter" style="ellipse;whiteSpace=wrap;html=1;" vertex="1" parent="1">
          <mxGeometry x="130" y="550" width="140" height="70" as="geometry" />
        </mxCell>
        <mxCell id="4EKFbNZDz_hPAvsTpn6M-18" value="ajouter oeuvre" style="ellipse;whiteSpace=wrap;html=1;" vertex="1" parent="1">
          <mxGeometry x="640" y="760" width="140" height="70" as="geometry" />
        </mxCell>
        <mxCell id="4EKFbNZDz_hPAvsTpn6M-19" style="rounded=0;orthogonalLoop=1;jettySize=auto;html=1;endArrow=classic;endFill=1;" edge="1" parent="1" source="4EKFbNZDz_hPAvsTpn6M-15" target="4EKFbNZDz_hPAvsTpn6M-20">
          <mxGeometry relative="1" as="geometry">
            <mxPoint x="-30" y="1010" as="sourcePoint" />
          </mxGeometry>
        </mxCell>
        <mxCell id="4EKFbNZDz_hPAvsTpn6M-20" value="rechercher oeuvre" style="ellipse;whiteSpace=wrap;html=1;" vertex="1" parent="1">
          <mxGeometry x="660" y="1050" width="140" height="70" as="geometry" />
        </mxCell>
        <mxCell id="4EKFbNZDz_hPAvsTpn6M-21" style="rounded=0;orthogonalLoop=1;jettySize=auto;html=1;endArrow=classic;endFill=1;startArrow=none;startFill=0;" edge="1" parent="1" source="4EKFbNZDz_hPAvsTpn6M-15" target="4EKFbNZDz_hPAvsTpn6M-22">
          <mxGeometry relative="1" as="geometry">
            <mxPoint x="-25" y="1040" as="sourcePoint" />
          </mxGeometry>
        </mxCell>
        <mxCell id="4EKFbNZDz_hPAvsTpn6M-22" value="rajouter en favoris" style="ellipse;whiteSpace=wrap;html=1;" vertex="1" parent="1">
          <mxGeometry x="660" y="880" width="140" height="70" as="geometry" />
        </mxCell>
        <mxCell id="4EKFbNZDz_hPAvsTpn6M-23" style="rounded=0;orthogonalLoop=1;jettySize=auto;html=1;endArrow=classic;endFill=1;" edge="1" parent="1" source="4EKFbNZDz_hPAvsTpn6M-15" target="4EKFbNZDz_hPAvsTpn6M-24">
          <mxGeometry relative="1" as="geometry">
            <mxPoint x="-40" y="1030" as="sourcePoint" />
          </mxGeometry>
        </mxCell>
        <mxCell id="4EKFbNZDz_hPAvsTpn6M-24" value="laisser un commentaire" style="ellipse;whiteSpace=wrap;html=1;" vertex="1" parent="1">
          <mxGeometry x="660" y="960" width="140" height="70" as="geometry" />
        </mxCell>
        <mxCell id="4EKFbNZDz_hPAvsTpn6M-27" value="&amp;lt;&amp;lt;include&amp;gt;&amp;gt;" style="html=1;verticalAlign=bottom;labelBackgroundColor=none;endArrow=open;endFill=0;dashed=1;rounded=0;" edge="1" parent="1" source="4EKFbNZDz_hPAvsTpn6M-18" target="4EKFbNZDz_hPAvsTpn6M-16">
          <mxGeometry width="160" relative="1" as="geometry">
            <mxPoint x="300" y="1241.1034314385774" as="sourcePoint" />
            <mxPoint x="530" y="870" as="targetPoint" />
          </mxGeometry>
        </mxCell>
        <mxCell id="4EKFbNZDz_hPAvsTpn6M-34" value="supprimer son oeuvre" style="ellipse;whiteSpace=wrap;html=1;" vertex="1" parent="1">
          <mxGeometry x="630" y="620" width="120" height="80" as="geometry" />
        </mxCell>
        <mxCell id="4EKFbNZDz_hPAvsTpn6M-35" value="" style="endArrow=none;dashed=1;html=1;rounded=0;" edge="1" parent="1" source="4EKFbNZDz_hPAvsTpn6M-39" target="4EKFbNZDz_hPAvsTpn6M-16">
          <mxGeometry width="50" height="50" relative="1" as="geometry">
            <mxPoint x="680" y="970" as="sourcePoint" />
            <mxPoint x="730" y="920" as="targetPoint" />
          </mxGeometry>
        </mxCell>
        <mxCell id="4EKFbNZDz_hPAvsTpn6M-37" value="" style="edgeStyle=orthogonalEdgeStyle;rounded=0;orthogonalLoop=1;jettySize=auto;html=1;endArrow=classic;endFill=1;curved=1;" edge="1" parent="1" source="4EKFbNZDz_hPAvsTpn6M-15" target="4EKFbNZDz_hPAvsTpn6M-18">
          <mxGeometry relative="1" as="geometry">
            <mxPoint x="90" y="900" as="sourcePoint" />
            <mxPoint x="630" y="910" as="targetPoint" />
            <Array as="points">
              <mxPoint x="710" y="870" />
            </Array>
          </mxGeometry>
        </mxCell>
        <mxCell id="4EKFbNZDz_hPAvsTpn6M-40" value="" style="endArrow=none;dashed=1;html=1;rounded=0;" edge="1" parent="1" source="4EKFbNZDz_hPAvsTpn6M-34" target="4EKFbNZDz_hPAvsTpn6M-39">
          <mxGeometry width="50" height="50" relative="1" as="geometry">
            <mxPoint x="708" y="971" as="sourcePoint" />
            <mxPoint x="489" y="820" as="targetPoint" />
          </mxGeometry>
        </mxCell>
        <mxCell id="4EKFbNZDz_hPAvsTpn6M-39" value="&lt;span style=&quot;color: rgb(240, 240, 240); font-family: Helvetica; font-size: 12px; font-style: normal; font-variant-ligatures: normal; font-variant-caps: normal; font-weight: 400; letter-spacing: normal; orphans: 2; text-align: left; text-indent: 0px; text-transform: none; widows: 2; word-spacing: 0px; -webkit-text-stroke-width: 0px; white-space: normal; background-color: rgb(27, 29, 30); text-decoration-thickness: initial; text-decoration-style: initial; text-decoration-color: initial; display: inline !important; float: none;&quot;&gt;&amp;lt;&amp;lt;include&amp;gt;&amp;gt;&lt;/span&gt;" style="text;whiteSpace=wrap;html=1;" vertex="1" parent="1">
          <mxGeometry x="540" y="690" width="100" height="40" as="geometry" />
        </mxCell>
        <mxCell id="4EKFbNZDz_hPAvsTpn6M-50" value="include" style="endArrow=open;endSize=12;dashed=1;html=1;rounded=0;" edge="1" parent="1" source="4EKFbNZDz_hPAvsTpn6M-24" target="4EKFbNZDz_hPAvsTpn6M-16">
          <mxGeometry width="160" relative="1" as="geometry">
            <mxPoint x="659.9952205497215" y="975.46434912425" as="sourcePoint" />
            <mxPoint x="477.9976024787355" y="900.0048699912008" as="targetPoint" />
          </mxGeometry>
        </mxCell>
        <mxCell id="4EKFbNZDz_hPAvsTpn6M-51" value="include" style="endArrow=open;endSize=12;dashed=1;html=1;rounded=0;" edge="1" parent="1" source="4EKFbNZDz_hPAvsTpn6M-22" target="4EKFbNZDz_hPAvsTpn6M-16">
          <mxGeometry width="160" relative="1" as="geometry">
            <mxPoint x="686" y="903" as="sourcePoint" />
            <mxPoint x="504" y="827" as="targetPoint" />
          </mxGeometry>
        </mxCell>
        <mxCell id="4EKFbNZDz_hPAvsTpn6M-52" value="include" style="endArrow=open;endSize=12;dashed=1;html=1;rounded=0;" edge="1" parent="1" source="4EKFbNZDz_hPAvsTpn6M-20" target="4EKFbNZDz_hPAvsTpn6M-16">
          <mxGeometry width="160" relative="1" as="geometry">
            <mxPoint x="660" y="987" as="sourcePoint" />
            <mxPoint x="452" y="843" as="targetPoint" />
          </mxGeometry>
        </mxCell>
        <mxCell id="4EKFbNZDz_hPAvsTpn6M-56" value="" style="curved=1;endArrow=classic;html=1;rounded=0;" edge="1" parent="1" source="4EKFbNZDz_hPAvsTpn6M-15" target="4EKFbNZDz_hPAvsTpn6M-34">
          <mxGeometry width="50" height="50" relative="1" as="geometry">
            <mxPoint x="150" y="810" as="sourcePoint" />
            <mxPoint x="200" y="760" as="targetPoint" />
            <Array as="points">
              <mxPoint x="200" y="810" />
              <mxPoint x="150" y="760" />
            </Array>
          </mxGeometry>
        </mxCell>
      </root>
    </mxGraphModel>
  </diagram>
</mxfile>
